<svg width="22" height="22" fill="none" xmlns="http://www.w3.org/2000/svg"><circle cx="11" cy="11" r="9.5" stroke="url(#paint0_linear)"/><path d="M15.6 6.029l-2.234-.516a.519.519 0 00-.59.299l-1.032 2.406c-.09.21-.03.458.148.601l1.302 1.066a7.963 7.963 0 01-3.807 3.807L8.322 12.39a.515.515 0 00-.602-.148l-2.406 1.031a.522.522 0 00-.3.593l.515 2.234c.053.232.26.4.502.4C11.534 16.5 16 12.042 16 6.531a.515.515 0 00-.4-.502z" fill="url(#paint1_linear)"/><defs><linearGradient id="paint0_linear" x1="11" y1="1" x2="11" y2="21" gradientUnits="userSpaceOnUse"><stop stop-color="#F36558"/><stop offset="1" stop-color="#FC6E58"/></linearGradient><linearGradient id="paint1_linear" x1="10.5" y1="5.5" x2="10.5" y2="16.5" gradientUnits="userSpaceOnUse"><stop stop-color="#E14F58"/><stop offset="0" stop-color="#E25158"/><stop offset="1" stop-color="#FD7058"/></linearGradient></defs></svg>